<svg width="36" height="48" viewBox="0 0 36 48" fill="none" xmlns="http://www.w3.org/2000/svg">
<g clip-path="url(#clip0_1_117)">
<path d="M9.06414 33.9949C8.25307 33.1802 8.67587 33.4099 6.71961 32.8839C5.83201 32.6449 5.05174 32.1855 4.34614 31.6352L0.111605 42.0639C-0.298129 43.0736 0.467205 44.1705 1.55174 44.1292L6.46947 43.9408L9.85187 47.5296C10.5985 48.3208 11.9089 48.0742 12.3187 47.0646L17.1767 35.1002C16.1649 35.6664 15.0421 35.9983 13.8811 35.9983C12.0611 35.9983 10.3512 35.2867 9.06414 33.9949ZM35.7276 42.0639L31.4931 31.6352C30.7875 32.1864 30.0072 32.6449 29.1196 32.8839C27.1531 33.4127 27.5843 33.1821 26.7751 33.9949C25.488 35.2867 23.7772 35.9983 21.9572 35.9983C20.7961 35.9983 19.6733 35.6655 18.6616 35.1002L23.5196 47.0646C23.9293 48.0742 25.2407 48.3208 25.9864 47.5296L29.3697 43.9408L34.2875 44.1292C35.372 44.1705 36.1373 43.0727 35.7276 42.0639ZM24.5463 31.8733C25.9724 30.4155 26.1357 30.5411 28.1667 29.9852C29.4631 29.6299 30.4767 28.5939 30.8239 27.2683C31.522 24.6058 31.3409 24.9274 33.2459 22.9792C34.1951 22.0089 34.5656 20.5942 34.2184 19.2686C33.5212 16.608 33.5203 16.9792 34.2184 14.3158C34.5656 12.9902 34.1951 11.5755 33.2459 10.6052C31.3409 8.65706 31.522 8.97769 30.8239 6.31613C30.4767 4.9905 29.4631 3.95456 28.1667 3.59925C25.5645 2.88581 25.8781 3.07238 23.9713 1.12331C23.0221 0.153002 21.638 -0.226685 20.3416 0.128627C17.7404 0.841127 18.1035 0.842064 15.4976 0.128627C14.2012 -0.226685 12.8171 0.152065 11.8679 1.12331C9.96294 3.07144 10.2765 2.88581 7.67347 3.59925C6.37707 3.95456 5.36347 4.9905 5.01627 6.31613C4.31907 8.97769 4.49921 8.65706 2.59427 10.6052C1.64507 11.5755 1.2736 12.9902 1.62174 14.3158C2.31894 16.9746 2.31987 16.6033 1.62174 19.2677C1.27454 20.5933 1.64507 22.008 2.59427 22.9792C4.49921 24.9274 4.31814 24.6058 5.01627 27.2683C5.36347 28.5939 6.37707 29.6299 7.67347 29.9852C9.76227 30.5571 9.91814 30.4671 11.2929 31.8733C12.5277 33.1361 14.4513 33.3621 15.9353 32.4189C16.5288 32.0405 17.2172 31.8396 17.9201 31.8396C18.623 31.8396 19.3114 32.0405 19.9048 32.4189C21.3879 33.3621 23.3115 33.1361 24.5463 31.8733ZM9.11454 16.4946C9.11454 11.523 13.0569 7.49269 17.9196 7.49269C22.7823 7.49269 26.7247 11.523 26.7247 16.4946C26.7247 21.4661 22.7823 25.4964 17.9196 25.4964C13.0569 25.4964 9.11454 21.4661 9.11454 16.4946Z" fill="#00A0C1"/>
</g>
<defs>
<clipPath id="clip0_1_117">
<rect width="35.84" height="48" fill="white"/>
</clipPath>
</defs>
</svg>
