<svg width="48" height="28" viewBox="0 0 48 28" fill="none" xmlns="http://www.w3.org/2000/svg">
<path d="M43.1502 12.2822C42.5747 12.2864 42.0047 12.3962 41.4674 12.6064L35.7271 7.82167C35.8684 7.30005 35.9689 6.75894 35.9689 6.18858C35.9689 2.81028 33.3022 0.0949707 29.9844 0.0949707C26.6667 0.0949707 24 2.81028 24 6.18858C24 7.15381 24.2394 8.05323 24.6272 8.86246L17.6636 17.2424C17.3849 17.1893 17.1022 17.1607 16.8186 17.1571C16.3902 17.1571 15.9856 17.2302 15.593 17.3374L9.45776 11.0903C9.56548 10.693 9.63729 10.281 9.63729 9.84475C9.63729 7.14406 7.50204 4.96986 4.84973 4.96986C2.19742 4.96986 0.0621643 7.14406 0.0621643 9.84475C0.0621643 12.5454 2.19742 14.7196 4.84973 14.7196C5.27822 14.7196 5.68277 14.6465 6.07535 14.5393L12.2106 20.7864C12.0955 21.1914 12.0351 21.6104 12.0311 22.032C12.0311 24.7327 14.1663 26.9069 16.8186 26.9069C19.471 26.9069 21.6062 24.7327 21.6062 22.032C21.6062 21.4543 21.4913 20.9107 21.3118 20.3964L28.2849 12.0068C28.8282 12.1676 29.3908 12.2822 29.9844 12.2822C30.9291 12.2769 31.8589 12.0421 32.6966 11.5973L38.4393 16.382C38.3942 16.638 38.3686 16.8971 38.3627 17.1571C38.3627 19.8578 40.4979 22.032 43.1502 22.032C45.8026 22.032 47.9378 19.8578 47.9378 17.1571C47.9378 14.4564 45.8026 12.2822 43.1502 12.2822Z" fill="#00A0C1"/>
</svg>
