<svg width="104" height="24" viewBox="0 0 104 24" fill="none" xmlns="http://www.w3.org/2000/svg">
<path d="M0.992 2.2H4.88V19H0.992V2.2ZM16.551 5.896C18.151 5.896 19.439 6.376 20.415 7.336C21.407 8.296 21.903 9.72 21.903 11.608V19H18.159V12.184C18.159 11.16 17.935 10.4 17.487 9.904C17.039 9.392 16.391 9.136 15.543 9.136C14.599 9.136 13.847 9.432 13.287 10.024C12.727 10.6 12.447 11.464 12.447 12.616V19H8.703V6.088H12.279V7.6C12.775 7.056 13.391 6.64 14.127 6.352C14.863 6.048 15.671 5.896 16.551 5.896ZM38.6894 1.192V19H35.1134V17.512C34.1854 18.632 32.8414 19.192 31.0814 19.192C29.8654 19.192 28.7614 18.92 27.7694 18.376C26.7934 17.832 26.0254 17.056 25.4654 16.048C24.9054 15.04 24.6254 13.872 24.6254 12.544C24.6254 11.216 24.9054 10.048 25.4654 9.04C26.0254 8.032 26.7934 7.256 27.7694 6.712C28.7614 6.168 29.8654 5.896 31.0814 5.896C32.7294 5.896 34.0174 6.416 34.9454 7.456V1.192H38.6894ZM31.7294 16.12C32.6734 16.12 33.4574 15.8 34.0814 15.16C34.7054 14.504 35.0174 13.632 35.0174 12.544C35.0174 11.456 34.7054 10.592 34.0814 9.952C33.4574 9.296 32.6734 8.968 31.7294 8.968C30.7694 8.968 29.9774 9.296 29.3534 9.952C28.7294 10.592 28.4174 11.456 28.4174 12.544C28.4174 13.632 28.7294 14.504 29.3534 15.16C29.9774 15.8 30.7694 16.12 31.7294 16.12ZM42.2546 6.088H45.9986V19H42.2546V6.088ZM44.1266 4.288C43.4386 4.288 42.8786 4.088 42.4466 3.688C42.0146 3.288 41.7986 2.792 41.7986 2.2C41.7986 1.608 42.0146 1.112 42.4466 0.711999C42.8786 0.311999 43.4386 0.111999 44.1266 0.111999C44.8146 0.111999 45.3746 0.303999 45.8066 0.688C46.2386 1.072 46.4546 1.552 46.4546 2.128C46.4546 2.752 46.2386 3.272 45.8066 3.688C45.3746 4.088 44.8146 4.288 44.1266 4.288ZM55.8133 19.192C54.4373 19.192 53.1973 18.912 52.0933 18.352C51.0053 17.776 50.1493 16.984 49.5253 15.976C48.9173 14.968 48.6133 13.824 48.6133 12.544C48.6133 11.264 48.9173 10.12 49.5253 9.112C50.1493 8.104 51.0053 7.32 52.0933 6.76C53.1973 6.184 54.4373 5.896 55.8133 5.896C57.1733 5.896 58.3573 6.184 59.3653 6.76C60.3893 7.32 61.1333 8.128 61.5973 9.184L58.6933 10.744C58.0213 9.56 57.0533 8.968 55.7893 8.968C54.8133 8.968 54.0053 9.288 53.3653 9.928C52.7253 10.568 52.4053 11.44 52.4053 12.544C52.4053 13.648 52.7253 14.52 53.3653 15.16C54.0053 15.8 54.8133 16.12 55.7893 16.12C57.0693 16.12 58.0373 15.528 58.6933 14.344L61.5973 15.928C61.1333 16.952 60.3893 17.752 59.3653 18.328C58.3573 18.904 57.1733 19.192 55.8133 19.192ZM69.8329 19.192C68.4729 19.192 67.2489 18.912 66.1609 18.352C65.0889 17.776 64.2489 16.984 63.6409 15.976C63.0329 14.968 62.7289 13.824 62.7289 12.544C62.7289 11.264 63.0329 10.12 63.6409 9.112C64.2489 8.104 65.0889 7.32 66.1609 6.76C67.2489 6.184 68.4729 5.896 69.8329 5.896C71.1929 5.896 72.4089 6.184 73.4809 6.76C74.5529 7.32 75.3929 8.104 76.0009 9.112C76.6089 10.12 76.9129 11.264 76.9129 12.544C76.9129 13.824 76.6089 14.968 76.0009 15.976C75.3929 16.984 74.5529 17.776 73.4809 18.352C72.4089 18.912 71.1929 19.192 69.8329 19.192ZM69.8329 16.12C70.7929 16.12 71.5769 15.8 72.1849 15.16C72.8089 14.504 73.1209 13.632 73.1209 12.544C73.1209 11.456 72.8089 10.592 72.1849 9.952C71.5769 9.296 70.7929 8.968 69.8329 8.968C68.8729 8.968 68.0809 9.296 67.4569 9.952C66.8329 10.592 66.5209 11.456 66.5209 12.544C66.5209 13.632 66.8329 14.504 67.4569 15.16C68.0809 15.8 68.8729 16.12 69.8329 16.12ZM83.0915 7.792C83.5395 7.168 84.1395 6.696 84.8915 6.376C85.6595 6.056 86.5395 5.896 87.5315 5.896V9.352C87.1155 9.32 86.8355 9.304 86.6915 9.304C85.6195 9.304 84.7795 9.608 84.1715 10.216C83.5635 10.808 83.2595 11.704 83.2595 12.904V19H79.5155V6.088H83.0915V7.792ZM97.4897 5.896C98.6897 5.896 99.7777 6.176 100.754 6.736C101.746 7.28 102.522 8.056 103.082 9.064C103.642 10.056 103.922 11.216 103.922 12.544C103.922 13.872 103.642 15.04 103.082 16.048C102.522 17.04 101.746 17.816 100.754 18.376C99.7777 18.92 98.6897 19.192 97.4897 19.192C95.8417 19.192 94.5457 18.672 93.6017 17.632V23.656H89.8577V6.088H93.4337V7.576C94.3617 6.456 95.7137 5.896 97.4897 5.896ZM96.8417 16.12C97.8017 16.12 98.5857 15.8 99.1937 15.16C99.8177 14.504 100.13 13.632 100.13 12.544C100.13 11.456 99.8177 10.592 99.1937 9.952C98.5857 9.296 97.8017 8.968 96.8417 8.968C95.8817 8.968 95.0897 9.296 94.4657 9.952C93.8577 10.592 93.5537 11.456 93.5537 12.544C93.5537 13.632 93.8577 14.504 94.4657 15.16C95.0897 15.8 95.8817 16.12 96.8417 16.12Z" fill="#252B42"/>
</svg>
